<?xml version="1.0" standalone="no"?>
<!DOCTYPE svg PUBLIC "-//W3C//DTD SVG 20010904//EN"
 "http://www.w3.org/TR/2001/REC-SVG-20010904/DTD/svg10.dtd">
<svg version="1.0" xmlns="http://www.w3.org/2000/svg"
 width="300.000000pt" height="234.000000pt" viewBox="0 0 300.000000 234.000000"
 preserveAspectRatio="xMidYMid meet">
<metadata>
Created by potrace 1.10, written by Peter Selinger 2001-2011
</metadata>
<g transform="translate(0.000000,234.000000) scale(0.100000,-0.100000)"
fill="#000000" stroke="none">
<path d="M2088 2287 l-37 -42 -23 28 -23 28 -80 -105 c-51 -67 -87 -105 -99
-106 -11 0 -60 31 -110 68 -50 38 -97 72 -104 76 -9 5 -26 -22 -61 -96 -41
-86 -47 -103 -33 -105 53 -7 210 -7 203 0 -5 5 -39 9 -76 9 -37 0 -77 3 -90 7
l-22 6 36 75 c33 68 38 75 56 65 35 -17 175 -118 175 -125 0 -4 13 -7 29 -6
16 1 29 4 28 7 -2 7 129 175 143 184 4 3 25 -11 46 -29 40 -36 60 -40 30 -7
-17 19 -17 21 16 50 57 52 81 33 31 -23 l-28 -31 30 26 c31 27 55 28 55 3 0
-8 4 -14 8 -14 5 0 15 -11 22 -25 12 -22 11 -28 -6 -47 l-19 -23 23 20 c20 16
25 17 32 5 13 -20 12 -30 0 -30 -5 0 -10 -5 -10 -12 0 -6 9 -3 20 7 18 16 20
16 20 2 0 -9 9 -32 20 -52 24 -44 25 -46 8 -57 -9 -6 -6 -7 9 -3 20 6 23 2 29
-34 4 -23 10 -41 15 -41 5 0 9 -9 9 -20 0 -11 -4 -20 -10 -20 -5 0 -10 -5 -10
-11 0 -8 4 -8 14 0 17 14 19 11 36 -52 11 -42 11 -50 -4 -65 -9 -10 -16 -23
-16 -28 0 -5 5 -1 11 9 5 9 14 17 18 17 11 0 24 -44 26 -90 2 -19 8 -48 14
-65 7 -16 10 -40 6 -52 -3 -13 -2 -23 3 -23 5 0 14 -16 22 -35 15 -37 7 -35
121 -40 33 -2 157 -60 188 -88 35 -33 79 -100 87 -133 4 -16 9 -33 12 -39 8
-12 3 -77 -8 -116 -8 -26 -5 -34 20 -61 29 -30 29 -30 9 -51 l-19 -21 -22 21
c-18 19 -19 24 -8 38 7 8 10 18 8 21 -3 3 -16 -11 -28 -31 -48 -77 -165 -136
-250 -125 -27 3 -50 4 -50 0 0 -3 10 -14 23 -25 32 -29 154 -28 219 2 63 29
144 106 176 168 24 44 27 62 27 140 -1 78 -4 97 -28 143 -69 133 -216 213
-398 216 l-77 1 -7 53 c-20 160 -98 400 -171 528 -45 79 -151 224 -163 224 -3
-1 -23 -20 -43 -43z m507 -797 c16 -17 14 -18 -27 -13 -24 3 -49 11 -57 19
-12 11 -7 13 27 12 26 0 47 -7 57 -18z m82 -12 c22 -18 14 -28 -12 -16 -14 6
-25 15 -25 20 0 5 -4 7 -9 3 -5 -3 -13 0 -17 6 -8 14 44 3 63 -13z m48 -2 c11
-7 36 -18 55 -25 52 -16 132 -104 163 -178 15 -35 25 -63 24 -63 -1 0 -65 63
-142 140 -125 126 -157 166 -100 126z m235 -300 c0 -9 -2 -16 -5 -16 -11 0
-47 39 -61 65 -24 47 -15 50 26 7 22 -22 40 -48 40 -56z m-3 -46 c7 -9 8 -19
2 -24 -5 -6 -9 -19 -9 -30 0 -18 -3 -17 -30 9 -24 23 -30 37 -30 69 l0 39 27
-24 c15 -13 33 -31 40 -39z m-27 -93 c0 -18 -2 -18 -22 -4 -22 14 -29 32 -20
50 7 14 42 -25 42 -46z m-74 -96 c-10 -16 -23 -14 -30 5 -9 25 4 38 21 21 9
-8 12 -20 9 -26z m-26 -20 c0 -5 -11 -16 -24 -24 -21 -14 -25 -14 -39 0 -14
14 -14 17 6 34 21 17 57 11 57 -10z m-70 -42 c0 -5 -9 -9 -20 -9 -22 0 -27 16
-7 23 15 5 27 -1 27 -14z m-47 -13 c7 -18 -52 -28 -72 -13 -11 10 -9 13 10 18
39 11 57 10 62 -5z"/>
<path d="M817 2278 c-140 -172 -254 -449 -284 -689 l-8 -60 -78 -4 c-186 -9
-326 -86 -394 -217 -24 -46 -27 -65 -28 -143 0 -78 3 -96 26 -140 35 -66 97
-126 167 -161 48 -24 69 -29 133 -29 62 0 81 4 98 19 31 28 26 33 -29 26 -85
-11 -202 48 -250 125 -12 20 -25 34 -28 31 -2 -3 1 -13 8 -21 11 -14 10 -19
-8 -38 l-22 -21 -19 21 c-20 21 -20 21 9 51 25 27 28 35 20 61 -20 70 -16 108
20 187 47 104 171 183 300 191 l65 4 -4 -164 c-3 -179 13 -323 51 -446 25 -81
97 -235 130 -278 l25 -33 -1 29 c-1 16 -4 27 -7 25 -15 -9 -64 67 -60 93 1 7
-2 13 -7 13 -5 0 -19 23 -31 50 -19 41 -21 53 -11 66 11 12 10 13 -4 8 -24 -9
-20 25 7 55 l22 26 -26 -23 c-31 -27 -39 -20 -41 35 0 21 -4 43 -8 48 -8 11
-10 20 -15 88 -1 26 -6 55 -9 64 -4 10 3 26 16 42 23 26 23 26 1 7 l-23 -19 1
79 c1 66 4 83 22 104 l22 25 -22 -19 -23 -19 0 45 c0 24 3 48 7 52 13 12 11
35 -3 47 -15 12 -20 34 -6 25 5 -3 9 0 10 7 6 64 28 116 65 154 30 31 43 39
50 30 6 -8 7 -7 4 5 -3 9 -3 18 1 20 4 2 25 30 47 62 72 107 180 175 311 197
187 31 387 -71 471 -239 l30 -60 22 46 c13 26 32 59 44 73 35 41 178 147 222
164 22 8 31 14 19 12 -11 -1 -27 3 -35 10 -11 9 -20 7 -39 -9 -16 -13 -19 -18
-7 -14 9 3 25 9 35 12 9 3 2 -3 -15 -15 -18 -11 -41 -18 -50 -15 -12 4 -14 3
-6 -3 9 -7 1 -18 -30 -43 -71 -57 -126 -118 -142 -158 l-16 -37 -16 33 c-15
30 -14 34 3 55 l19 22 -23 -19 c-22 -19 -23 -19 -37 0 -19 25 -19 33 3 58 17
21 17 21 -5 2 -19 -15 -25 -17 -38 -6 -12 10 -13 16 -3 29 11 14 11 14 -3 4
-12 -10 -20 -8 -41 12 -39 36 -143 83 -207 94 -69 12 -131 15 -151 8 -8 -3
-41 -13 -74 -22 -32 -9 -77 -28 -100 -42 -53 -33 -131 -108 -158 -153 -12 -19
-39 -53 -60 -75 -40 -42 -40 -42 -41 22 0 46 27 119 57 153 17 19 21 26 9 16
-21 -17 -23 -17 -23 -3 0 10 5 17 11 17 5 0 7 5 4 10 -3 6 -1 10 5 10 6 0 8 4
5 10 -3 5 15 33 42 62 34 38 37 43 10 19 -20 -19 -37 -32 -37 -28 0 4 18 42
40 85 28 53 62 100 110 147 68 68 70 68 90 50 11 -10 20 -22 20 -26 0 -4 -21
-29 -47 -55 -48 -47 -28 -35 30 19 24 22 32 25 44 16 12 -10 4 -22 -44 -73
l-58 -61 62 59 61 59 23 -22 23 -21 -89 -92 c-50 -51 -85 -89 -80 -85 6 4 47
44 92 89 57 57 86 79 98 75 13 -6 14 -11 4 -29 -11 -22 -10 -22 6 -7 16 16 19
16 46 1 l28 -17 -22 -25 -22 -25 26 23 c23 20 28 21 38 8 7 -8 9 -21 5 -28 -6
-10 -4 -9 9 1 14 11 23 11 47 1 16 -7 27 -16 24 -21 -3 -5 2 -6 11 -2 10 3 21
0 26 -8 8 -14 11 -15 68 -17 l34 -2 -19 -22 -19 -21 27 17 c15 10 32 15 38 11
5 -3 36 -7 68 -9 63 -3 84 -7 93 -19 8 -11 40 3 33 14 -3 5 2 9 10 9 9 0 16
-8 16 -17 0 -15 2 -16 10 -3 7 10 10 11 10 2 0 -11 -46 -45 -75 -56 -5 -2 -7
-7 -3 -11 3 -4 27 5 52 20 39 23 44 29 37 48 -7 18 -4 24 18 34 22 10 18 11
-29 5 -91 -12 -221 -6 -290 12 -128 33 -282 126 -421 254 -31 29 -59 52 -62
52 -3 0 -21 -19 -40 -42z m53 9 c0 -2 -19 -21 -42 -42 -40 -38 -37 -26 6 23
17 19 36 29 36 19z m-297 -622 c4 -8 2 -17 -3 -20 -6 -4 -10 3 -10 14 0 25 6
27 13 6z m-83 -169 c-8 -7 -34 -16 -58 -19 -42 -5 -43 -5 -26 14 11 13 30 19
58 19 35 0 38 -2 26 -14z m-120 -16 c-30 -22 -60 -32 -60 -19 0 10 56 38 75
38 6 0 -1 -8 -15 -19z m-151 -87 c-51 -54 -116 -118 -142 -142 l-48 -45 27 65
c27 63 112 164 144 171 8 2 17 5 20 8 8 8 74 39 84 39 6 1 -33 -43 -85 -96z
m-111 -155 c-6 -18 -24 -46 -39 -62 -28 -27 -29 -28 -29 -6 0 17 64 100 77
100 1 0 -3 -15 -9 -32z m-27 -152 c-28 -27 -31 -28 -31 -10 0 11 -4 24 -10 30
-6 6 4 23 28 49 l37 39 3 -39 c3 -32 -2 -43 -27 -69z m32 -27 c-6 -21 -29 -36
-39 -26 -9 9 16 47 30 47 9 0 12 -7 9 -21z m61 -112 c-7 -19 -20 -22 -29 -7
-9 15 16 43 27 32 5 -5 6 -16 2 -25z m52 -16 c22 -17 22 -19 6 -34 -16 -14
-19 -14 -42 3 -20 15 -22 20 -11 34 17 20 18 20 47 -3z m54 -51 c0 -5 -9 -10
-20 -10 -11 0 -20 5 -20 10 0 6 9 10 20 10 11 0 20 -4 20 -10z m80 -10 c13 0
13 -2 0 -14 -10 -9 -27 -12 -48 -9 -27 4 -30 8 -20 20 7 8 20 12 32 9 12 -3
28 -6 36 -6z"/>
<path d="M2144 2198 l-19 -23 23 19 c21 18 27 26 19 26 -2 0 -12 -10 -23 -22z"/>
<path d="M2120 2149 c14 -25 13 -26 -30 -34 -19 -3 -39 -10 -46 -15 -6 -6 -14
-7 -17 -3 -4 3 -7 1 -7 -6 0 -8 7 -11 15 -7 9 3 41 13 71 22 l56 16 -23 24
c-28 30 -33 30 -19 3z"/>
<path d="M790 2105 c-13 -14 -22 -27 -19 -29 2 -2 14 10 27 25 29 36 24 38 -8
4z"/>
<path d="M989 2063 c-13 -16 -12 -17 4 -4 9 7 17 15 17 17 0 8 -8 3 -21 -13z"/>
<path d="M2206 2071 c-18 -7 -18 -8 -2 -14 19 -8 36 -1 36 14 0 10 -7 11 -34
0z"/>
<path d="M745 2059 c-4 -6 -5 -12 -2 -15 2 -3 7 2 10 11 7 17 1 20 -8 4z"/>
<path d="M2080 2063 c-29 -6 -40 -19 -40 -49 0 -17 7 -23 33 -27 17 -3 42 -8
55 -12 14 -5 22 -3 22 4 0 6 -18 14 -40 17 -47 8 -67 26 -46 43 8 6 18 11 22
10 19 -3 34 2 34 11 0 6 -3 9 -7 9 -5 -1 -19 -4 -33 -6z"/>
<path d="M789 2033 c-13 -16 -12 -17 4 -4 9 7 17 15 17 17 0 8 -8 3 -21 -13z"/>
<path d="M2145 2040 c-8 -13 5 -13 25 0 13 8 13 10 -2 10 -9 0 -20 -4 -23 -10z"/>
<path d="M1049 2023 c-13 -16 -12 -17 4 -4 9 7 17 15 17 17 0 8 -8 3 -21 -13z"/>
<path d="M2176 1995 c-7 -38 -2 -55 17 -55 8 0 8 3 0 11 -6 6 -9 26 -6 45 7
45 -3 44 -11 -1z"/>
<path d="M2200 2019 c0 -5 5 -7 10 -4 6 3 10 8 10 11 0 2 -4 4 -10 4 -5 0 -10
-5 -10 -11z"/>
<path d="M1817 2008 c-15 -5 -25 -13 -22 -18 7 -12 53 0 59 16 6 16 2 16 -37
2z"/>
<path d="M1878 2013 c7 -3 16 -2 19 1 4 3 -2 6 -13 5 -11 0 -14 -3 -6 -6z"/>
<path d="M920 2000 c-9 -6 -10 -10 -3 -10 6 0 15 5 18 10 8 12 4 12 -15 0z"/>
<path d="M739 1983 c-13 -16 -12 -17 4 -4 9 7 17 15 17 17 0 8 -8 3 -21 -13z"/>
<path d="M1890 1984 c-36 -9 -42 -12 -19 -10 27 3 71 -10 170 -50 74 -29 135
-54 137 -54 1 0 2 9 2 21 0 20 0 20 33 -3 80 -56 160 -176 174 -260 4 -31 8
-36 19 -27 15 12 20 34 6 25 -5 -3 -21 27 -37 67 -16 42 -46 94 -73 125 -37
44 -42 56 -31 64 11 8 10 8 -5 4 -11 -4 -33 2 -53 14 -40 24 -54 25 -47 5 7
-17 -21 -10 -116 30 -36 15 -76 32 -90 37 -20 7 -22 11 -10 18 19 12 8 11 -60
-6z"/>
<path d="M1980 1980 c8 -5 24 -9 35 -9 20 0 20 0 0 9 -11 5 -27 9 -35 9 -13 1
-13 0 0 -9z"/>
<path d="M1440 1961 c0 -21 26 -27 43 -9 16 17 16 18 -13 18 -16 0 -30 -4 -30
-9z"/>
<path d="M740 1885 c-41 -41 -72 -75 -68 -75 4 0 32 27 64 60 31 33 60 57 64
55 8 -5 24 25 17 31 -2 2 -36 -30 -77 -71z"/>
<path d="M2055 1950 c3 -5 14 -10 24 -10 10 0 21 -3 25 -7 8 -8 36 -13 36 -7
0 6 -66 34 -80 34 -6 0 -8 -4 -5 -10z"/>
<path d="M968 1943 c7 -3 16 -2 19 1 4 3 -2 6 -13 5 -11 0 -14 -3 -6 -6z"/>
<path d="M920 1930 c-9 -6 -10 -10 -3 -10 6 0 15 5 18 10 8 12 4 12 -15 0z"/>
<path d="M2304 1918 l-19 -23 23 19 c21 18 27 26 19 26 -2 0 -12 -10 -23 -22z"/>
<path d="M1509 1896 c9 -11 9 -15 0 -18 -8 -3 -4 -16 13 -42 20 -29 27 -33 32
-21 3 9 2 13 -4 10 -6 -3 -11 2 -11 12 -3 41 -16 73 -31 73 -6 0 -6 -6 1 -14z"/>
<path d="M1615 1880 c-16 -11 -24 -20 -17 -20 7 0 22 9 34 20 28 25 21 25 -17
0z"/>
<path d="M1030 1804 c-19 -8 -43 -17 -52 -20 -10 -4 -18 -10 -18 -15 0 -5 -6
-9 -14 -9 -18 0 -84 -79 -106 -127 -27 -60 -31 -172 -9 -219 10 -22 18 -42 19
-46 0 -11 38 -56 77 -93 60 -57 194 -82 282 -54 61 20 171 107 171 136 0 7 5
13 10 13 6 0 10 8 10 18 0 10 3 22 7 26 18 18 24 134 8 171 -7 17 -18 44 -25
62 -23 61 -120 145 -183 159 -56 13 -144 12 -177 -2z m202 -32 c191 -84 230
-335 73 -475 -11 -10 -43 -29 -72 -43 -140 -67 -315 3 -380 153 -25 58 -22
167 7 223 40 80 111 139 195 161 45 12 128 3 177 -19z"/>
<path d="M1050 1725 c-89 -28 -153 -118 -153 -215 0 -133 106 -228 241 -217
113 9 192 86 200 197 5 70 -10 120 -51 166 -60 69 -153 96 -237 69z m130 -25
c43 -13 102 -65 119 -106 23 -57 18 -134 -12 -180 -38 -61 -77 -85 -147 -91
-86 -8 -140 15 -179 74 -26 40 -31 56 -31 110 0 78 18 123 61 154 61 44 126
57 189 39z"/>
<path d="M1006 1629 c-44 -52 -26 -114 39 -139 48 -18 109 30 109 87 0 77 -98
112 -148 52z m112 -16 c28 -37 -2 -103 -47 -103 -31 0 -63 33 -63 65 0 57 75
83 110 38z"/>
<path d="M1785 1802 c-47 -16 -140 -72 -121 -72 5 0 -4 -12 -19 -27 -37 -37
-55 -82 -62 -157 -11 -117 32 -218 119 -283 77 -57 220 -69 308 -25 43 21 110
73 110 86 0 3 8 15 17 26 26 30 43 97 43 170 0 121 -66 217 -185 271 -75 34
-135 37 -210 11z m214 -31 c180 -92 221 -322 82 -459 -144 -141 -370 -99 -466
88 -29 55 -25 171 8 237 27 52 92 117 137 135 78 32 174 32 239 -1z"/>
<path d="M1809 1725 c-53 -17 -115 -73 -137 -124 -22 -53 -19 -138 6 -187 52
-101 161 -146 273 -113 149 45 200 248 91 362 -59 63 -153 87 -233 62z m163
-42 c66 -36 98 -90 98 -166 0 -68 -11 -100 -48 -135 -46 -45 -75 -58 -134 -61
-159 -7 -249 137 -178 285 46 94 166 129 262 77z"/>
<path d="M1789 1659 c-37 -14 -60 -63 -47 -101 30 -85 136 -86 165 -2 14 40
-6 90 -42 104 -31 12 -41 12 -76 -1z m91 -51 c13 -25 13 -31 0 -55 -20 -37
-70 -43 -99 -14 -25 25 -27 49 -5 79 23 34 83 27 104 -10z"/>
<path d="M604 1748 l-29 -33 33 29 c17 17 32 31 32 33 0 8 -8 1 -36 -29z"/>
<path d="M1505 1750 c-3 -5 -1 -10 4 -10 6 0 11 5 11 10 0 6 -2 10 -4 10 -3 0
-8 -4 -11 -10z"/>
<path d="M2316 1737 c3 -10 9 -15 12 -12 3 3 0 11 -7 18 -10 9 -11 8 -5 -6z"/>
<path d="M1533 1695 c-3 -9 -3 -18 -1 -21 3 -3 8 4 11 16 6 23 -1 27 -10 5z"/>
<path d="M2405 1680 c-3 -5 -1 -10 4 -10 6 0 11 5 11 10 0 6 -2 10 -4 10 -3 0
-8 -4 -11 -10z"/>
<path d="M627 1663 c-4 -3 -7 -18 -6 -32 1 -26 1 -25 10 3 9 31 7 41 -4 29z"/>
<path d="M608 1571 c-12 -50 -10 -77 3 -64 5 5 9 30 7 54 l-3 44 -7 -34z"/>
<path d="M564 1538 l-19 -23 23 19 c21 18 27 26 19 26 -2 0 -12 -10 -23 -22z"/>
<path d="M2401 1515 c-1 -67 -26 -157 -57 -214 -33 -61 -82 -114 -96 -105 -6
4 -8 3 -4 -4 10 -16 -69 -73 -137 -98 -34 -13 -53 -23 -41 -23 29 -1 122 45
171 86 42 33 141 153 127 153 -3 0 0 10 8 23 8 12 20 49 27 82 7 33 17 72 22
88 4 15 4 27 -1 27 -5 0 -11 8 -13 18 -3 9 -5 -6 -6 -33z"/>
<path d="M631 1494 c0 -11 3 -14 6 -6 3 7 2 16 -1 19 -3 4 -6 -2 -5 -13z"/>
<path d="M611 1460 c-1 -19 3 -50 8 -68 8 -26 7 -34 -5 -39 -7 -3 -14 -10 -14
-16 0 -6 8 -4 17 5 15 16 18 15 35 -23 10 -23 32 -59 50 -82 21 -26 28 -42 20
-45 -6 -2 -12 -8 -12 -14 0 -6 6 -6 15 2 12 10 22 5 57 -23 49 -40 116 -77
138 -77 8 0 -14 14 -49 30 -120 57 -219 187 -247 325 -10 49 -12 53 -13 25z"/>
<path d="M2470 1438 c-6 -64 -4 -106 4 -101 4 3 6 -19 3 -48 -12 -113 -12
-129 -2 -126 14 5 17 135 6 227 -4 41 -10 63 -11 48z"/>
<path d="M2361 1424 c0 -11 3 -14 6 -6 3 7 2 16 -1 19 -3 4 -6 -2 -5 -13z"/>
<path d="M579 1383 c-13 -16 -12 -17 4 -4 16 13 21 21 13 21 -2 0 -10 -8 -17
-17z"/>
<path d="M551 1287 c-13 -21 -12 -21 5 -5 10 10 16 20 13 22 -3 3 -11 -5 -18
-17z"/>
<path d="M636 1273 c-6 -14 -5 -15 5 -6 7 7 10 15 7 18 -3 3 -9 -2 -12 -12z"/>
<path d="M1417 1280 c-72 -13 -100 -35 -95 -73 3 -18 8 -39 12 -48 5 -12 -8
-23 -56 -47 -35 -17 -81 -33 -103 -37 -71 -11 -85 -15 -85 -25 0 -6 10 -6 26
1 15 5 35 7 45 4 18 -6 18 -8 4 -28 -25 -36 -17 -58 38 -112 62 -59 114 -87
137 -75 16 8 61 53 105 104 21 24 27 27 40 16 10 -8 15 -9 15 -1 0 6 -11 13
-24 17 -24 6 -61 49 -83 94 -10 22 -11 23 -12 4 -1 -20 38 -81 61 -95 13 -8
-33 -72 -83 -114 l-31 -25 -39 22 c-56 31 -129 104 -129 128 0 12 12 33 26 47
16 15 19 23 9 20 -9 -4 -14 -3 -10 3 20 32 83 -8 118 -75 9 -17 16 -23 17 -14
0 8 11 37 24 62 13 26 21 47 19 47 -7 0 -34 -28 -33 -35 2 -17 -13 -54 -20
-50 -5 3 -6 15 -2 27 4 15 2 19 -8 13 -7 -4 -16 -2 -20 6 -11 16 24 43 43 33
9 -5 9 -4 0 6 -10 11 -17 10 -39 -4 -17 -12 -30 -14 -36 -8 -15 15 77 63 93
48 9 -8 10 -8 4 3 -4 8 -2 17 6 22 10 7 11 11 3 17 -7 4 -14 20 -15 37 -3 24
2 33 29 52 30 20 45 22 138 21 89 -1 109 -4 131 -21 20 -16 24 -27 21 -53 -2
-19 -1 -34 4 -34 10 0 21 67 13 80 -21 34 -166 57 -258 40z"/>
<path d="M660 1251 c0 -6 4 -13 10 -16 6 -3 7 1 4 9 -7 18 -14 21 -14 7z"/>
<path d="M589 1223 c-13 -16 -12 -17 4 -4 9 7 17 15 17 17 0 8 -8 3 -21 -13z"/>
<path d="M639 1203 c-13 -16 -12 -17 4 -4 9 7 17 15 17 17 0 8 -8 3 -21 -13z"/>
<path d="M2296 1175 c-25 -25 -46 -48 -46 -52 0 -4 23 15 50 42 28 27 50 51
50 52 0 9 -13 -2 -54 -42z"/>
<path d="M2435 1210 c-3 -5 -1 -10 4 -10 6 0 11 5 11 10 0 6 -2 10 -4 10 -3 0
-8 -4 -11 -10z"/>
<path d="M2396 1164 c-5 -14 -4 -15 9 -4 17 14 19 20 6 20 -5 0 -12 -7 -15
-16z"/>
<path d="M1637 1143 c-4 -3 -7 -11 -7 -17 0 -6 5 -5 12 2 6 6 9 14 7 17 -3 3
-9 2 -12 -2z"/>
<path d="M1676 1134 c19 -19 119 -64 141 -64 7 0 17 -8 22 -17 6 -11 11 -13
11 -5 0 9 10 12 30 8 17 -2 30 -1 30 4 0 4 -22 10 -50 12 -28 3 -79 20 -117
39 -89 45 -88 44 -67 23z"/>
<path d="M2429 1133 c-13 -16 -12 -17 4 -4 16 13 21 21 13 21 -2 0 -10 -8 -17
-17z"/>
<path d="M2472 1114 c-2 -30 -9 -47 -32 -69 -16 -16 -30 -33 -30 -39 0 -6 7 0
16 12 8 12 19 22 25 22 18 0 9 -39 -18 -72 -23 -28 -24 -30 -4 -13 24 20 24
20 18 0 -3 -11 -9 -36 -12 -57 -4 -20 -18 -46 -31 -59 -19 -18 -22 -25 -11
-37 9 -12 9 -16 -1 -19 -6 -3 -10 -8 -7 -13 2 -4 -4 -18 -15 -30 -11 -12 -17
-27 -14 -31 5 -8 -22 -60 -72 -139 -12 -19 -10 -18 10 5 87 101 196 421 183
541 l-4 39 -1 -41z"/>
<path d="M659 1123 c-13 -16 -12 -17 4 -4 9 7 17 15 17 17 0 8 -8 3 -21 -13z"/>
<path d="M968 1133 c6 -2 18 -2 25 0 6 3 1 5 -13 5 -14 0 -19 -2 -12 -5z"/>
<path d="M2360 1129 c0 -5 5 -7 10 -4 6 3 10 8 10 11 0 2 -4 4 -10 4 -5 0 -10
-5 -10 -11z"/>
<path d="M1365 1110 c3 -5 8 -10 11 -10 2 0 4 5 4 10 0 6 -5 10 -11 10 -5 0
-7 -4 -4 -10z"/>
<path d="M1635 1084 c-9 -15 -12 -23 -6 -20 11 7 35 46 28 46 -3 0 -12 -12
-22 -26z"/>
<path d="M2220 1099 c0 -5 5 -7 10 -4 6 3 10 8 10 11 0 2 -4 4 -10 4 -5 0 -10
-5 -10 -11z"/>
<path d="M983 1093 c9 -2 23 -2 30 0 6 3 -1 5 -18 5 -16 0 -22 -2 -12 -5z"/>
<path d="M1148 1093 c6 -2 18 -2 25 0 6 3 1 5 -13 5 -14 0 -19 -2 -12 -5z"/>
<path d="M1996 1091 c-3 -4 6 -6 19 -3 14 2 25 6 25 8 0 8 -39 4 -44 -5z"/>
<path d="M845 1080 c-3 -5 -1 -10 4 -10 6 0 11 5 11 10 0 6 -2 10 -4 10 -3 0
-8 -4 -11 -10z"/>
<path d="M1594 1075 c5 -14 -5 -31 -41 -67 -30 -31 -42 -48 -31 -48 21 0 88
75 88 99 0 11 -5 23 -12 27 -8 5 -9 2 -4 -11z"/>
<path d="M962 1066 c16 -8 37 -14 48 -13 29 2 11 14 -35 21 -40 7 -40 7 -13
-8z"/>
<path d="M2122 1064 c-12 -8 -22 -21 -22 -27 0 -7 7 -4 14 6 7 9 18 17 25 17
6 0 11 5 11 10 0 13 -2 13 -28 -6z"/>
<path d="M2265 1040 c-22 -22 -36 -40 -32 -40 4 0 26 18 48 40 22 22 37 40 32
40 -4 -1 -26 -19 -48 -40z"/>
<path d="M1680 1060 c10 -6 9 -13 -6 -34 -23 -31 -39 -34 -23 -4 10 18 9 20
-5 15 -9 -4 -16 -1 -16 5 0 6 -2 9 -5 7 -2 -3 2 -25 9 -49 l13 -45 18 35 c9
19 26 44 36 55 17 20 17 20 -8 22 -17 1 -21 -2 -13 -7z"/>
<path d="M1740 1063 c31 -11 60 -47 60 -74 0 -31 -67 -97 -132 -130 l-37 -19
-53 53 c-45 46 -57 53 -78 46 -25 -7 -25 -7 -2 -8 23 -1 112 -85 112 -105 0
-5 -3 -7 -6 -3 -7 7 -86 -30 -95 -45 -3 -5 -5 -20 -3 -34 1 -13 -2 -26 -6 -29
-5 -3 -7 4 -5 16 5 23 -21 69 -38 69 -5 0 -3 -8 6 -18 33 -37 14 -83 -67 -165
l-48 -47 -38 21 c-60 34 -130 103 -130 128 0 27 42 71 69 71 20 0 61 -47 75
-85 6 -17 11 -12 26 28 24 62 39 79 64 74 27 -6 115 87 94 99 -7 4 -10 3 -5
-1 4 -5 -9 -26 -30 -47 -28 -28 -45 -38 -69 -38 -28 0 -35 -5 -51 -40 -17 -37
-42 -58 -29 -24 4 10 1 14 -6 12 -19 -7 -49 34 -36 50 7 8 7 12 -1 12 -6 0
-11 -4 -11 -10 0 -5 -9 -10 -19 -10 -24 0 -81 -52 -81 -74 0 -22 -21 -20 -27
2 -3 12 -14 18 -36 19 -19 0 -23 -1 -10 -4 12 -2 28 -15 37 -28 19 -29 9 -65
-41 -143 -18 -29 -33 -56 -33 -61 0 -4 -9 -16 -20 -26 -11 -10 -18 -20 -15
-23 2 -2 16 10 31 27 14 17 30 29 34 26 5 -3 7 4 5 16 -2 12 7 37 20 57 14 20
25 43 25 52 0 13 1 13 11 0 8 -12 9 -10 4 7 -3 13 -2 30 3 39 7 13 11 11 27
-13 20 -31 65 -76 65 -65 0 4 5 -1 11 -10 5 -10 17 -18 24 -18 18 0 20 -16 3
-24 -7 -3 -3 -3 9 -1 32 8 38 -13 12 -41 -20 -21 -24 -22 -39 -9 -26 23 -59
18 -91 -14 -41 -41 -38 -71 12 -115 33 -30 38 -40 28 -52 -7 -9 -8 -14 -1 -14
6 0 12 6 15 13 3 9 9 8 23 -3 56 -45 68 -45 113 -6 21 18 23 19 18 3 -4 -11
-3 -16 4 -12 5 4 8 12 6 18 -3 7 5 23 17 37 11 14 -3 3 -32 -23 l-52 -48 -42
23 c-57 32 -128 103 -128 128 0 26 43 70 69 70 21 0 66 -47 77 -82 6 -19 9
-15 25 28 10 27 26 54 34 60 28 21 80 -1 95 -41 l9 -20 0 21 c1 11 7 26 14 34
10 12 9 12 -5 2 -10 -9 -18 -9 -22 -3 -4 6 -23 15 -43 20 -44 12 -58 3 -84
-53 -16 -37 -17 -38 -28 -17 -11 20 -3 30 83 115 53 52 96 98 96 104 0 22 32
21 50 0 18 -22 18 -24 -1 -44 -10 -11 -19 -24 -19 -28 0 -5 8 2 19 15 16 20
21 22 35 10 15 -13 15 -15 -1 -35 -18 -21 -18 -21 3 -4 19 17 21 17 45 -12 23
-28 69 -41 69 -20 0 6 5 10 11 10 5 0 7 -6 3 -12 -9 -16 156 140 174 165 7 9
20 17 28 17 8 0 32 9 54 20 22 11 48 21 58 23 33 5 123 69 133 94 6 16 5 32
-3 46 -12 23 -58 67 -70 67 -5 0 -26 -16 -47 -35 l-39 -36 -7 41 c-7 40 -39
75 -58 63 -6 -3 -1 -10 10 -14 22 -8 43 -56 43 -98 0 -25 1 -25 39 17 44 48
68 52 99 19 48 -51 16 -101 -94 -147 -27 -12 -59 -26 -71 -32 -13 -6 -26 -8
-29 -5 -4 4 -24 -7 -45 -24 -29 -23 -39 -27 -39 -15 0 9 -9 25 -20 36 -29 29
-35 25 -11 -6 12 -15 21 -35 21 -45 0 -22 -59 -82 -119 -120 l-44 -28 -29 20
c-42 31 -108 122 -108 151 0 29 24 54 62 63 23 6 30 2 47 -26 11 -18 23 -47
27 -63 l6 -30 15 30 c22 42 54 74 75 74 10 0 18 5 18 11 0 6 -7 8 -16 5 -9 -3
-21 -6 -28 -6 -6 0 -20 -14 -30 -31 -14 -23 -21 -28 -30 -19 -8 8 -7 14 6 21
10 5 23 20 29 32 9 18 7 17 -15 -5 -33 -34 -38 -34 -53 -3 -11 24 -9 27 36 50
71 36 131 94 140 135 11 57 -16 91 -69 89 -13 -1 -13 -1 0 -6z"/>
<path d="M1955 1060 c-14 -6 -16 -9 -5 -10 31 -4 75 2 85 11 12 11 -52 11 -80
-1z"/>
<path d="M2285 988 l-80 -83 83 80 c76 74 87 85 79 85 -1 0 -38 -37 -82 -82z"/>
<path d="M744 1038 l-19 -23 23 19 c21 18 27 26 19 26 -2 0 -12 -10 -23 -22z"/>
<path d="M815 1049 c-4 -6 -5 -12 -2 -15 2 -3 7 2 10 11 7 17 1 20 -8 4z"/>
<path d="M873 1004 c-29 -29 -53 -61 -54 -71 0 -10 -2 -30 -3 -45 -1 -14 1
-25 4 -23 3 2 17 -5 30 -15 l25 -19 -23 -21 c-12 -11 -22 -24 -22 -27 0 -4 11
4 24 17 30 28 67 22 45 -8 -13 -15 -12 -16 3 -4 19 15 78 7 78 -10 0 -6 13 -8
30 -6 35 5 38 -2 11 -26 -11 -10 -17 -25 -14 -36 3 -10 0 -27 -5 -37 -10 -17
-11 -17 -18 1 -4 11 -2 22 7 27 10 7 5 9 -16 7 -18 -2 -29 1 -28 8 3 18 -66
-1 -83 -23 -24 -32 -33 -76 -18 -94 8 -9 11 -19 7 -23 -5 -4 -1 -7 7 -5 18 3
50 -10 68 -28 7 -7 21 -13 29 -13 14 0 13 -3 -3 -22 l-19 -23 21 18 c15 12 31
16 50 12 17 -3 8 3 -20 15 -126 54 -163 104 -112 155 34 34 53 32 97 -15 l37
-39 7 49 c4 32 15 56 31 71 14 13 20 25 14 29 -7 4 -3 15 10 30 11 12 27 40
37 61 9 22 20 39 24 39 8 0 10 28 3 75 -3 22 -12 34 -34 43 -56 25 -110 -3
-110 -57 0 -29 -17 -34 -39 -12 -11 11 -16 23 -11 26 6 4 10 12 10 18 0 9 -2
9 -8 0 -4 -6 -19 -10 -34 -10 l-27 2 31 33 c18 17 28 31 22 31 -5 -1 -33 -26
-61 -55z m212 12 c50 -21 54 -52 16 -123 -17 -32 -41 -71 -54 -86 l-22 -28
-55 20 c-126 49 -168 104 -116 156 34 34 52 32 96 -13 36 -35 39 -37 44 -18 3
12 6 31 6 44 0 19 31 62 45 62 3 0 21 -6 40 -14z"/>
<path d="M1048 1053 c6 -2 18 -2 25 0 6 3 1 5 -13 5 -14 0 -19 -2 -12 -5z"/>
<path d="M639 1033 c-13 -16 -12 -17 4 -4 9 7 17 15 17 17 0 8 -8 3 -21 -13z"/>
<path d="M786 1013 c-6 -14 -5 -15 5 -6 7 7 10 15 7 18 -3 3 -9 -2 -12 -12z"/>
<path d="M1851 1013 c-35 -29 -32 -70 11 -141 21 -34 38 -66 38 -71 0 -5 7
-11 15 -15 21 -8 19 0 -9 37 -35 46 -66 113 -66 139 0 31 11 45 40 57 16 6 19
10 9 10 -9 1 -26 -7 -38 -16z"/>
<path d="M2075 1020 c-3 -5 -1 -10 4 -10 6 0 11 5 11 10 0 6 -2 10 -4 10 -3 0
-8 -4 -11 -10z"/>
<path d="M694 988 l-19 -23 23 19 c21 18 27 26 19 26 -2 0 -12 -10 -23 -22z"/>
<path d="M2379 983 c-13 -16 -12 -17 4 -4 16 13 21 21 13 21 -2 0 -10 -8 -17
-17z"/>
<path d="M704 937 l-29 -32 30 25 c17 14 32 26 34 28 2 1 2 4 -1 7 -2 3 -18
-10 -34 -28z"/>
<path d="M1930 961 c0 -6 4 -13 10 -16 6 -3 7 1 4 9 -7 18 -14 21 -14 7z"/>
<path d="M644 938 l-19 -23 23 19 c21 18 27 26 19 26 -2 0 -12 -10 -23 -22z"/>
<path d="M2170 945 c-19 -22 -8 -25 13 -3 9 10 13 18 8 18 -5 0 -14 -7 -21
-15z"/>
<path d="M2339 943 c-13 -16 -12 -17 4 -4 16 13 21 21 13 21 -2 0 -10 -8 -17
-17z"/>
<path d="M2340 873 l-55 -58 58 55 c31 30 57 56 57 57 0 8 -10 -1 -60 -54z"/>
<path d="M2215 820 c-69 -69 -107 -100 -123 -100 -24 0 -82 -37 -82 -53 0 -5
14 3 31 17 38 32 53 33 85 1 52 -52 11 -106 -114 -153 l-53 -20 -23 24 c-12
14 -37 54 -55 89 -35 68 -48 84 -30 38 8 -23 6 -31 -23 -61 -18 -19 -26 -31
-18 -27 8 5 21 17 28 27 16 22 28 23 36 1 4 -10 -2 -26 -16 -42 l-23 -26 27
24 c30 27 30 27 48 -8 10 -20 8 -27 -17 -55 l-28 -31 30 27 c24 21 34 25 48
16 18 -9 17 -13 -15 -46 -22 -25 -17 -21 19 11 29 26 58 47 65 47 21 0 90 39
121 69 22 20 27 32 24 56 -4 25 3 38 47 85 l51 55 -52 -49 c-47 -44 -73 -53
-73 -23 0 6 44 56 97 109 54 54 95 98 93 98 -3 0 -50 -45 -105 -100z"/>
<path d="M656 883 c-6 -14 -5 -15 5 -6 7 7 10 15 7 18 -3 3 -9 -2 -12 -12z"/>
<path d="M1775 889 c-4 -6 -5 -12 -2 -15 2 -3 7 2 10 11 7 17 1 20 -8 4z"/>
<path d="M1825 892 c4 -8 -1 -23 -11 -35 -18 -22 -18 -22 6 0 20 19 22 25 11
35 -11 11 -13 10 -6 0z"/>
<path d="M2174 892 c3 -6 -6 -20 -20 -31 -15 -12 -22 -21 -17 -21 5 0 20 11
32 24 17 18 19 26 10 31 -7 5 -10 4 -5 -3z"/>
<path d="M710 833 l-55 -58 58 55 c31 30 57 56 57 57 0 8 -10 -1 -60 -54z"/>
<path d="M437 827 c-26 -31 -19 -115 17 -192 56 -124 173 -205 295 -205 61 0
68 -3 111 -39 113 -95 241 -154 271 -124 5 5 -5 7 -27 5 -24 -3 -34 -1 -30 6
3 6 -1 8 -13 5 -20 -5 -42 18 -23 25 7 2 12 8 12 14 0 6 -10 3 -21 -8 -16 -14
-23 -15 -26 -6 -3 6 -11 12 -19 12 -20 0 -17 13 9 46 l22 29 -26 -20 c-15 -11
-25 -23 -22 -27 6 -11 -5 -10 -28 3 -17 9 -18 13 -7 27 11 15 11 15 -3 4 -14
-11 -22 -7 -53 23 -20 20 -34 40 -31 45 7 11 -8 14 -18 3 -4 -3 -32 -7 -63 -8
l-57 -1 32 28 c19 17 26 28 17 28 -8 0 -20 8 -25 18 -9 15 -13 14 -43 -16 -18
-18 -25 -30 -16 -27 9 4 19 13 22 21 6 16 32 19 41 5 3 -5 -2 -16 -10 -25 -18
-18 -78 -16 -113 3 l-24 13 23 24 c18 20 29 23 58 19 l36 -6 -40 17 c-102 43
-194 148 -195 222 0 27 -8 28 -27 5 -10 -12 -9 -8 2 10 9 16 15 37 13 47 -3
18 -4 18 -21 -3z m50 -144 c9 -18 9 -30 2 -39 -7 -9 -5 -12 8 -10 9 0 19 -7
21 -16 5 -24 -13 -23 -38 2 -11 11 -18 20 -15 20 3 0 1 9 -5 21 -12 21 -7 49
7 49 4 0 14 -12 20 -27z m78 -91 l24 -19 -21 -20 c-20 -20 -21 -20 -39 -2 -22
22 -23 31 -7 47 15 15 16 15 43 -6z m29 -66 c-13 -10 -22 -11 -29 -5 -7 7 -4
15 9 25 13 9 23 11 30 4 7 -7 3 -15 -10 -24z"/>
<path d="M1109 833 c-13 -16 -12 -17 4 -4 9 7 17 15 17 17 0 8 -8 3 -21 -13z"/>
<path d="M1555 839 c-11 -17 1 -21 15 -4 8 9 8 15 2 15 -6 0 -14 -5 -17 -11z"/>
<path d="M2540 831 c0 -12 7 -34 16 -49 11 -19 12 -22 1 -9 -20 24 -24 22 -30
-15 -3 -21 1 -39 10 -50 8 -9 12 -25 9 -35 -3 -10 -6 -21 -6 -25 -2 -17 -46
-56 -54 -48 -15 15 1 40 21 33 16 -6 16 -5 5 9 -10 13 -11 22 -2 38 6 12 9 24
6 28 -3 3 -6 1 -6 -5 0 -17 -69 -95 -104 -119 -17 -11 -49 -28 -71 -38 l-40
-17 34 6 c27 4 40 0 58 -17 13 -12 23 -26 23 -31 0 -6 -3 -7 -7 -4 -3 4 -14 0
-24 -9 -16 -14 -20 -13 -57 20 -39 36 -57 44 -64 28 -12 -31 -248 -211 -338
-259 -15 -7 -19 -13 -10 -13 24 0 165 87 219 136 48 43 51 44 117 44 166 0
316 144 331 318 4 48 2 61 -16 81 -21 24 -21 24 -21 2z m20 -101 c0 -5 -2 -10
-4 -10 -3 0 -8 5 -11 10 -3 6 -1 10 4 10 6 0 11 -4 11 -10z m-80 -135 c10 -12
9 -20 -5 -41 l-17 -26 -23 22 -24 23 22 18 c27 23 31 23 47 4z m-40 -64 c0
-18 -14 -19 -37 -4 -17 12 -21 18 -12 24 14 8 49 -6 49 -20z m-127 -41 c22
-25 21 -30 -1 -30 -26 0 -56 25 -48 38 11 18 29 14 49 -8z m-44 -24 l23 -24
-39 0 c-50 0 -58 6 -37 29 22 24 26 24 53 -5z"/>
<path d="M755 819 c-4 -6 -5 -12 -2 -15 2 -3 7 2 10 11 7 17 1 20 -8 4z"/>
<path d="M2109 813 c-13 -16 -12 -17 4 -4 16 13 21 21 13 21 -2 0 -10 -8 -17
-17z"/>
<path d="M1170 795 c-33 -35 -21 -38 13 -3 15 15 24 28 19 28 -5 0 -19 -11
-32 -25z"/>
<path d="M636 763 c-6 -14 -5 -15 5 -6 7 7 10 15 7 18 -3 3 -9 -2 -12 -12z"/>
<path d="M1985 760 c-3 -5 -13 -6 -22 -3 -14 6 -14 4 0 -18 8 -13 18 -43 22
-67 4 -23 11 -40 16 -36 5 3 6 16 3 30 -4 17 0 32 12 47 10 12 12 16 4 10 -20
-18 -27 -16 -33 7 -3 12 1 24 11 30 10 5 12 10 5 10 -6 0 -14 -4 -18 -10z"/>
<path d="M2049 753 c-13 -16 -12 -17 4 -4 16 13 21 21 13 21 -2 0 -10 -8 -17
-17z"/>
<path d="M855 749 c-4 -6 -5 -12 -2 -15 2 -3 7 2 10 11 7 17 1 20 -8 4z"/>
<path d="M676 733 c-6 -14 -5 -15 5 -6 7 7 10 15 7 18 -3 3 -9 -2 -12 -12z"/>
<path d="M2284 718 l-29 -33 33 29 c17 17 32 31 32 33 0 8 -8 1 -36 -29z"/>
<path d="M754 714 c-18 -14 -18 -15 4 -4 12 6 22 13 22 15 0 8 -5 6 -26 -11z"/>
<path d="M2314 678 l-19 -23 23 19 c21 18 27 26 19 26 -2 0 -12 -10 -23 -22z"/>
<path d="M785 679 c-4 -6 -5 -12 -2 -15 2 -3 7 2 10 11 7 17 1 20 -8 4z"/>
<path d="M2269 633 c-13 -16 -12 -17 4 -4 16 13 21 21 13 21 -2 0 -10 -8 -17
-17z"/>
<path d="M1175 629 c-4 -6 -5 -12 -2 -15 2 -3 7 2 10 11 7 17 1 20 -8 4z"/>
<path d="M2185 620 c-10 -11 -14 -20 -9 -20 5 0 15 9 22 20 7 11 11 20 9 20
-2 0 -12 -9 -22 -20z"/>
<path d="M1194 578 l-29 -33 33 29 c17 17 32 31 32 33 0 8 -8 1 -36 -29z"/>
<path d="M1465 580 c-16 -16 -25 -30 -21 -30 7 0 56 49 56 56 0 8 -8 3 -35
-26z"/>
<path d="M2219 583 l-24 -28 28 24 c15 14 27 26 27 28 0 8 -8 1 -31 -24z"/>
<path d="M2145 579 c-4 -6 -5 -12 -2 -15 2 -3 7 2 10 11 7 17 1 20 -8 4z"/>
<path d="M770 560 c-13 -11 -19 -20 -13 -20 5 0 18 9 28 20 10 11 16 20 13 20
-3 0 -15 -9 -28 -20z"/>
<path d="M1514 558 l-19 -23 23 19 c21 18 27 26 19 26 -2 0 -12 -10 -23 -22z"/>
<path d="M2045 479 c-44 -45 -69 -73 -55 -63 27 20 146 144 139 144 -2 0 -40
-37 -84 -81z"/>
<path d="M1533 530 c-31 -18 -35 -28 -49 -100 -4 -19 -2 -21 5 -10 9 13 13 11
28 -10 29 -41 85 -100 105 -111 15 -8 28 -5 54 10 43 26 51 26 33 3 -13 -16 0
-8 41 27 3 2 -3 1 -12 -2 -10 -4 -18 -2 -18 3 0 9 14 14 32 11 5 0 7 4 5 11
-1 7 5 13 13 13 8 0 14 6 13 12 -1 6 4 17 12 23 23 19 18 68 -10 95 -34 35
-68 32 -99 -7 -15 -18 -31 -39 -37 -46 -6 -7 -9 -18 -7 -23 2 -6 18 12 35 40
36 57 55 63 97 30 50 -40 25 -93 -78 -164 l-55 -37 -27 21 c-34 27 -86 87
-103 119 -19 36 -5 71 34 88 19 8 35 16 35 19 0 10 -15 5 -47 -15z"/>
<path d="M1608 513 c10 -16 22 -35 25 -43 4 -10 6 -11 6 -2 1 19 -28 72 -40
72 -6 0 -2 -12 9 -27z"/>
<path d="M1649 523 c-13 -17 -13 -17 6 -3 11 8 22 16 24 17 2 2 0 3 -6 3 -6 0
-17 -8 -24 -17z"/>
<path d="M1570 510 c0 -5 5 -10 11 -10 5 0 7 5 4 10 -3 6 -8 10 -11 10 -2 0
-4 -4 -4 -10z"/>
<path d="M2085 448 l-50 -53 53 50 c48 46 57 55 49 55 -1 0 -25 -24 -52 -52z"/>
<path d="M1069 453 l-34 -38 38 34 c34 33 42 41 34 41 -2 0 -19 -17 -38 -37z"/>
<path d="M899 453 l-24 -28 28 24 c25 23 32 31 24 31 -2 0 -14 -12 -28 -27z"/>
<path d="M1441 464 c0 -11 3 -14 6 -6 3 7 2 16 -1 19 -3 4 -6 -2 -5 -13z"/>
<path d="M1447 427 l-18 -32 21 21 c13 12 21 27 19 33 -2 6 -12 -4 -22 -22z"/>
<path d="M966 414 c-5 -14 -4 -15 9 -4 17 14 19 20 6 20 -5 0 -12 -7 -15 -16z"/>
<path d="M1590 401 c0 -6 4 -13 10 -16 6 -3 7 1 4 9 -7 18 -14 21 -14 7z"/>
<path d="M1839 373 c-13 -16 -12 -17 4 -4 16 13 21 21 13 21 -2 0 -10 -8 -17
-17z"/>
<path d="M1999 363 l-24 -28 28 24 c15 14 27 26 27 28 0 8 -8 1 -31 -24z"/>
<path d="M1074 359 c-19 -22 -19 -22 4 -8 12 8 22 17 22 21 0 12 -6 9 -26 -13z"/>
<path d="M1685 360 c-3 -5 -1 -10 4 -10 6 0 11 5 11 10 0 6 -2 10 -4 10 -3 0
-8 -4 -11 -10z"/>
<path d="M1469 343 c-13 -16 -12 -17 4 -4 16 13 21 21 13 21 -2 0 -10 -8 -17
-17z"/>
<path d="M1800 340 c-8 -5 -12 -12 -9 -15 4 -3 12 1 19 10 14 17 11 19 -10 5z"/>
<path d="M1481 256 c-50 -51 -69 -76 -60 -80 8 -3 4 -3 -8 0 -14 3 -23 1 -23
-6 0 -6 -5 -8 -10 -5 -6 4 -8 14 -5 24 3 11 -5 26 -22 42 l-28 24 24 -27 c12
-14 20 -31 17 -36 -3 -5 1 -23 10 -40 8 -17 18 -47 21 -67 5 -33 4 -35 -20
-35 -21 0 -31 9 -47 39 -11 22 -24 42 -30 46 -19 12 -47 -5 -66 -40 -19 -36
-29 -42 -76 -44 -23 -1 -31 7 -47 37 -30 59 -43 66 -75 41 -14 -11 -26 -26
-26 -33 0 -21 -34 -46 -56 -40 -20 5 -20 7 -4 56 11 35 32 66 66 100 51 50 51
62 0 29 -52 -34 -106 -133 -106 -193 0 -15 9 -18 48 -18 48 0 48 0 73 50 13
27 26 50 29 50 3 0 16 -21 30 -48 25 -47 25 -47 80 -50 l56 -3 24 50 c14 28
27 51 30 51 3 0 16 -21 30 -48 24 -45 27 -47 73 -50 46 -3 47 -2 47 25 0 16
-9 45 -19 66 l-19 37 88 0 c49 0 91 4 94 9 4 5 -3 7 -14 4 -16 -4 -19 -2 -14
13 6 18 6 18 -7 1 -10 -12 -25 -16 -56 -14 -23 1 -45 6 -49 10 -5 4 23 39 61
77 38 39 67 70 64 70 -2 0 -37 -33 -78 -74z"/>
<path d="M1944 308 l-19 -23 23 19 c12 11 22 21 22 23 0 8 -8 2 -26 -19z"/>
<path d="M1430 309 c0 -5 5 -7 10 -4 6 3 10 8 10 11 0 2 -4 4 -10 4 -5 0 -10
-5 -10 -11z"/>
<path d="M1190 298 c0 -4 16 -8 35 -8 19 0 35 2 35 4 0 2 -16 6 -35 8 -19 2
-35 0 -35 -4z"/>
<path d="M1742 300 c-18 -4 -36 -11 -39 -14 -10 -10 61 5 72 15 5 5 7 9 5 8
-3 -1 -20 -5 -38 -9z"/>
<path d="M1579 283 c-13 -16 -12 -17 4 -4 16 13 21 21 13 21 -2 0 -10 -8 -17
-17z"/>
<path d="M1860 291 c8 -5 26 -12 40 -15 l25 -7 -25 15 c-14 9 -32 15 -40 15
-13 0 -13 -1 0 -8z"/>
<path d="M1664 269 c-19 -22 -19 -22 4 -8 12 8 22 17 22 21 0 12 -6 9 -26 -13z"/>
<path d="M1255 270 c-20 -9 -20 -9 0 -9 11 0 27 4 35 9 13 9 13 10 0 9 -8 0
-24 -4 -35 -9z"/>
<path d="M1788 273 c7 -3 16 -2 19 1 4 3 -2 6 -13 5 -11 0 -14 -3 -6 -6z"/>
<path d="M1315 260 c-3 -6 1 -7 9 -4 18 7 21 14 7 14 -6 0 -13 -4 -16 -10z"/>
<path d="M1708 263 c6 -2 18 -2 25 0 6 3 1 5 -13 5 -14 0 -19 -2 -12 -5z"/>
<path d="M1370 249 c0 -5 5 -7 10 -4 6 3 10 8 10 11 0 2 -4 4 -10 4 -5 0 -10
-5 -10 -11z"/>
<path d="M1534 238 l-19 -23 23 19 c12 11 22 21 22 23 0 8 -8 2 -26 -19z"/>
<path d="M1614 228 l-19 -23 23 19 c21 18 27 26 19 26 -2 0 -12 -10 -23 -22z"/>
<path d="M1928 244 c-4 -3 13 -24 36 -47 44 -44 76 -121 58 -139 -15 -15 -43
-6 -56 17 -45 80 -68 84 -107 16 -19 -34 -25 -38 -61 -38 -32 0 -41 4 -52 26
-8 14 -25 36 -39 49 l-25 23 -20 -26 c-12 -15 -24 -35 -27 -46 -4 -10 -9 -19
-13 -20 -4 0 -17 -2 -29 -5 -38 -7 -37 15 3 111 6 15 1 12 -18 -8 -15 -16 -30
-43 -33 -60 -4 -18 -9 -40 -11 -49 -5 -15 2 -18 45 -18 49 0 50 0 79 51 l29
51 28 -51 28 -51 53 0 52 0 30 51 29 51 28 -51 c28 -51 29 -51 77 -51 55 0 55
2 32 79 -10 33 -30 69 -56 97 -40 44 -49 49 -60 38z"/>
<path d="M1634 218 l-19 -23 23 19 c21 18 27 26 19 26 -2 0 -12 -10 -23 -22z"/>
<path d="M1495 200 c-3 -5 -1 -10 4 -10 6 0 11 5 11 10 0 6 -2 10 -4 10 -3 0
-8 -4 -11 -10z"/>
</g>
</svg>
